<svg width="175" height="47" viewBox="0 0 175 47" fill="none" xmlns="http://www.w3.org/2000/svg">
<rect x="1.5" y="1.5" width="172" height="43.0598" rx="21.5299" fill="white" stroke="#F19150" stroke-width="3"/>
<path d="M39.2372 14.1786C40.1392 14.1786 40.9276 14.2776 41.6022 14.4756C42.2769 14.6736 42.8196 14.8826 43.2302 15.1026C43.6409 15.3226 43.8902 15.4693 43.9782 15.5426L42.3942 18.1936C42.2769 18.1056 42.0752 17.9773 41.7892 17.8086C41.5106 17.64 41.1769 17.4896 40.7882 17.3576C40.4069 17.2256 40.0072 17.1596 39.5892 17.1596C39.0246 17.1596 38.5662 17.2623 38.2142 17.4676C37.8696 17.6656 37.6972 17.9626 37.6972 18.3586C37.6972 18.63 37.7889 18.8756 37.9722 19.0956C38.1629 19.3083 38.4489 19.5136 38.8302 19.7116C39.2189 19.9023 39.7102 20.1113 40.3042 20.3386C40.8469 20.5366 41.3566 20.7713 41.8332 21.0426C42.3099 21.314 42.7279 21.6366 43.0872 22.0106C43.4539 22.3773 43.7436 22.8026 43.9562 23.2866C44.1689 23.7706 44.2752 24.3206 44.2752 24.9366C44.2752 25.67 44.1249 26.308 43.8242 26.8506C43.5236 27.386 43.1129 27.8296 42.5922 28.1816C42.0789 28.5336 41.4922 28.794 40.8322 28.9626C40.1796 29.1386 39.5012 29.2266 38.7972 29.2266C37.7999 29.2266 36.9052 29.113 36.1132 28.8856C35.3286 28.6583 34.6942 28.4126 34.2102 28.1486C33.7262 27.8846 33.4366 27.7086 33.3412 27.6206L34.9802 24.8596C35.0682 24.9256 35.2369 25.032 35.4862 25.1786C35.7429 25.3253 36.0546 25.4793 36.4212 25.6406C36.7879 25.7946 37.1766 25.9266 37.5872 26.0366C38.0052 26.1466 38.4159 26.2016 38.8192 26.2016C39.4939 26.2016 39.9999 26.0733 40.3372 25.8166C40.6746 25.5526 40.8432 25.208 40.8432 24.7826C40.8432 24.4673 40.7369 24.185 40.5242 23.9356C40.3116 23.6863 39.9926 23.4516 39.5672 23.2316C39.1419 23.0043 38.6102 22.766 37.9722 22.5166C37.3342 22.26 36.7366 21.9483 36.1792 21.5816C35.6292 21.215 35.1819 20.7566 34.8372 20.2066C34.4926 19.6566 34.3202 18.9746 34.3202 18.1606C34.3202 17.3466 34.5476 16.6426 35.0022 16.0486C35.4642 15.4473 36.0692 14.9853 36.8172 14.6626C37.5726 14.34 38.3792 14.1786 39.2372 14.1786ZM53.2748 28.9626V27.4996C53.2088 27.6463 53.0401 27.859 52.7688 28.1376C52.5048 28.4163 52.1528 28.6693 51.7128 28.8966C51.2728 29.1166 50.7595 29.2266 50.1728 29.2266C49.2928 29.2266 48.5228 29.014 47.8628 28.5886C47.2028 28.156 46.6895 27.5803 46.3228 26.8616C45.9561 26.1356 45.7728 25.3326 45.7728 24.4526C45.7728 23.5726 45.9561 22.7733 46.3228 22.0546C46.6895 21.3286 47.2028 20.7493 47.8628 20.3166C48.5228 19.884 49.2928 19.6676 50.1728 19.6676C50.7375 19.6676 51.2325 19.7593 51.6578 19.9426C52.0831 20.1186 52.4278 20.3313 52.6918 20.5806C52.9558 20.8226 53.1391 21.0463 53.2418 21.2516V19.9316H56.5638V28.9626H53.2748ZM49.0508 24.4526C49.0508 24.8633 49.1461 25.2336 49.3368 25.5636C49.5275 25.8863 49.7805 26.1393 50.0958 26.3226C50.4185 26.506 50.7741 26.5976 51.1628 26.5976C51.5661 26.5976 51.9218 26.506 52.2298 26.3226C52.5378 26.1393 52.7798 25.8863 52.9558 25.5636C53.1391 25.2336 53.2308 24.8633 53.2308 24.4526C53.2308 24.042 53.1391 23.6753 52.9558 23.3526C52.7798 23.0226 52.5378 22.766 52.2298 22.5826C51.9218 22.392 51.5661 22.2966 51.1628 22.2966C50.7741 22.2966 50.4185 22.392 50.0958 22.5826C49.7805 22.766 49.5275 23.0226 49.3368 23.3526C49.1461 23.6753 49.0508 24.042 49.0508 24.4526ZM58.6308 28.9626V13.8266H61.9748V21.2516C62.0408 21.0463 62.2094 20.8226 62.4808 20.5806C62.7594 20.3313 63.1224 20.1186 63.5698 19.9426C64.0244 19.7593 64.5378 19.6676 65.1098 19.6676C65.9898 19.6676 66.7524 19.884 67.3978 20.3166C68.0431 20.7493 68.5418 21.3286 68.8938 22.0546C69.2458 22.7733 69.4218 23.5726 69.4218 24.4526C69.4218 25.3326 69.2458 26.1356 68.8938 26.8616C68.5418 27.5803 68.0431 28.156 67.3978 28.5886C66.7524 29.014 65.9898 29.2266 65.1098 29.2266C64.6258 29.2266 64.1674 29.1386 63.7348 28.9626C63.3094 28.794 62.9391 28.5776 62.6238 28.3136C62.3158 28.0423 62.0884 27.771 61.9418 27.4996V28.9626H58.6308ZM66.1438 24.4526C66.1438 24.042 66.0521 23.6753 65.8688 23.3526C65.6928 23.0226 65.4471 22.766 65.1318 22.5826C64.8238 22.392 64.4754 22.2966 64.0868 22.2966C63.6834 22.2966 63.3204 22.392 62.9978 22.5826C62.6824 22.766 62.4331 23.0226 62.2498 23.3526C62.0664 23.6753 61.9748 24.042 61.9748 24.4526C61.9748 24.8633 62.0664 25.2336 62.2498 25.5636C62.4331 25.8863 62.6824 26.1393 62.9978 26.3226C63.3204 26.506 63.6834 26.5976 64.0868 26.5976C64.4754 26.5976 64.8238 26.506 65.1318 26.3226C65.4471 26.1393 65.6928 25.8863 65.8688 25.5636C66.0521 25.2336 66.1438 24.8633 66.1438 24.4526ZM73.6368 25.1566C73.6588 25.4793 73.7615 25.7653 73.9448 26.0146C74.1282 26.264 74.3812 26.462 74.7038 26.6086C75.0338 26.748 75.4225 26.8176 75.8698 26.8176C76.2952 26.8176 76.6765 26.7736 77.0138 26.6856C77.3585 26.5976 77.6555 26.4876 77.9048 26.3556C78.1615 26.2236 78.3595 26.088 78.4988 25.9486L79.7968 28.0166C79.6135 28.2146 79.3532 28.409 79.0158 28.5996C78.6858 28.783 78.2495 28.9333 77.7068 29.0506C77.1642 29.168 76.4785 29.2266 75.6498 29.2266C74.6525 29.2266 73.7652 29.0396 72.9878 28.6656C72.2105 28.2916 71.5982 27.7416 71.1508 27.0156C70.7035 26.2896 70.4798 25.4023 70.4798 24.3536C70.4798 23.4736 70.6705 22.6816 71.0518 21.9776C71.4405 21.2663 72.0015 20.7053 72.7348 20.2946C73.4682 19.8766 74.3518 19.6676 75.3858 19.6676C76.3685 19.6676 77.2192 19.8473 77.9378 20.2066C78.6638 20.566 79.2212 21.1013 79.6098 21.8126C80.0058 22.5166 80.2038 23.3966 80.2038 24.4526C80.2038 24.5113 80.2002 24.6286 80.1928 24.8046C80.1928 24.9806 80.1855 25.098 80.1708 25.1566H73.6368ZM77.0578 23.4076C77.0505 23.173 76.9882 22.942 76.8708 22.7146C76.7535 22.48 76.5775 22.2893 76.3428 22.1426C76.1082 21.9886 75.8075 21.9116 75.4408 21.9116C75.0742 21.9116 74.7625 21.985 74.5058 22.1316C74.2565 22.271 74.0658 22.4543 73.9338 22.6816C73.8018 22.909 73.7285 23.151 73.7138 23.4076H77.0578ZM84.9899 28.9626H81.6459V19.9316H84.9899V21.3286H84.9349C84.9935 21.16 85.1365 20.9473 85.3639 20.6906C85.5912 20.4266 85.9102 20.192 86.3209 19.9866C86.7315 19.774 87.2339 19.6676 87.8279 19.6676C88.2459 19.6676 88.6309 19.7336 88.9829 19.8656C89.3349 19.9903 89.5915 20.1113 89.7529 20.2286L88.4549 22.9456C88.3522 22.821 88.1689 22.6926 87.9049 22.5606C87.6482 22.4213 87.3255 22.3516 86.9369 22.3516C86.4895 22.3516 86.1192 22.4653 85.8259 22.6926C85.5399 22.92 85.3272 23.195 85.1879 23.5176C85.0559 23.8403 84.9899 24.1446 84.9899 24.4306V28.9626ZM108.896 19.6676C109.578 19.6676 110.179 19.8106 110.7 20.0966C111.22 20.3753 111.627 20.808 111.921 21.3946C112.221 21.9813 112.372 22.7366 112.372 23.6606V28.9626H109.083V24.1666C109.083 23.536 108.987 23.0263 108.797 22.6376C108.606 22.249 108.228 22.0546 107.664 22.0546C107.326 22.0546 107.029 22.1426 106.773 22.3186C106.516 22.4946 106.318 22.7403 106.179 23.0556C106.039 23.3636 105.97 23.734 105.97 24.1666V28.9626H102.901V24.1666C102.901 23.536 102.794 23.0263 102.582 22.6376C102.376 22.249 102.01 22.0546 101.482 22.0546C101.144 22.0546 100.847 22.1426 100.591 22.3186C100.334 22.4873 100.136 22.7293 99.9968 23.0446C99.8648 23.3526 99.7988 23.7266 99.7988 24.1666V28.9626H96.4768V19.9316H99.7988V21.2186C99.8868 20.9913 100.077 20.7603 100.371 20.5256C100.671 20.2836 101.042 20.082 101.482 19.9206C101.922 19.752 102.387 19.6676 102.879 19.6676C103.414 19.6676 103.861 19.7483 104.221 19.9096C104.58 20.0636 104.873 20.2726 105.101 20.5366C105.335 20.8006 105.522 21.0866 105.662 21.3946C105.764 21.1306 105.966 20.8666 106.267 20.6026C106.575 20.3313 106.956 20.1076 107.411 19.9316C107.873 19.7556 108.368 19.6676 108.896 19.6676ZM121.316 28.9626V27.4996C121.25 27.6463 121.081 27.859 120.81 28.1376C120.546 28.4163 120.194 28.6693 119.754 28.8966C119.314 29.1166 118.8 29.2266 118.214 29.2266C117.334 29.2266 116.564 29.014 115.904 28.5886C115.244 28.156 114.73 27.5803 114.364 26.8616C113.997 26.1356 113.814 25.3326 113.814 24.4526C113.814 23.5726 113.997 22.7733 114.364 22.0546C114.73 21.3286 115.244 20.7493 115.904 20.3166C116.564 19.884 117.334 19.6676 118.214 19.6676C118.778 19.6676 119.273 19.7593 119.699 19.9426C120.124 20.1186 120.469 20.3313 120.733 20.5806C120.997 20.8226 121.18 21.0463 121.283 21.2516V19.9316H124.605V28.9626H121.316ZM117.092 24.4526C117.092 24.8633 117.187 25.2336 117.378 25.5636C117.568 25.8863 117.821 26.1393 118.137 26.3226C118.459 26.506 118.815 26.5976 119.204 26.5976C119.607 26.5976 119.963 26.506 120.271 26.3226C120.579 26.1393 120.821 25.8863 120.997 25.5636C121.18 25.2336 121.272 24.8633 121.272 24.4526C121.272 24.042 121.18 23.6753 120.997 23.3526C120.821 23.0226 120.579 22.766 120.271 22.5826C119.963 22.392 119.607 22.2966 119.204 22.2966C118.815 22.2966 118.459 22.392 118.137 22.5826C117.821 22.766 117.568 23.0226 117.378 23.3526C117.187 23.6753 117.092 24.042 117.092 24.4526ZM126.837 28.9626V19.9316H130.181V28.9626H126.837ZM128.553 18.0726C128.025 18.0726 127.577 17.8893 127.211 17.5226C126.844 17.1486 126.661 16.705 126.661 16.1916C126.661 15.6783 126.844 15.2346 127.211 14.8606C127.585 14.4793 128.032 14.2886 128.553 14.2886C128.897 14.2886 129.213 14.3766 129.499 14.5526C129.785 14.7213 130.016 14.9486 130.192 15.2346C130.368 15.5206 130.456 15.8396 130.456 16.1916C130.456 16.705 130.269 17.1486 129.895 17.5226C129.521 17.8893 129.073 18.0726 128.553 18.0726ZM136.533 19.6676C137.127 19.6676 137.669 19.719 138.161 19.8216C138.652 19.917 139.063 20.027 139.393 20.1516C139.73 20.2763 139.946 20.379 140.042 20.4596L138.953 22.4286C138.813 22.326 138.553 22.194 138.172 22.0326C137.798 21.8713 137.38 21.7906 136.918 21.7906C136.566 21.7906 136.269 21.8456 136.027 21.9556C135.785 22.0583 135.664 22.2233 135.664 22.4506C135.664 22.678 135.796 22.8613 136.06 23.0006C136.331 23.1326 136.72 23.25 137.226 23.3526C137.666 23.4406 138.113 23.58 138.568 23.7706C139.022 23.9613 139.4 24.2436 139.701 24.6176C140.009 24.9843 140.163 25.4756 140.163 26.0916C140.163 26.7223 140.027 27.243 139.756 27.6536C139.484 28.0643 139.125 28.3833 138.678 28.6106C138.23 28.838 137.746 28.9956 137.226 29.0836C136.705 29.179 136.199 29.2266 135.708 29.2266C135.018 29.2266 134.417 29.1643 133.904 29.0396C133.398 28.915 132.987 28.772 132.672 28.6106C132.356 28.4493 132.136 28.321 132.012 28.2256L133.09 26.0256C133.28 26.187 133.592 26.3703 134.025 26.5756C134.457 26.7736 134.916 26.8726 135.4 26.8726C135.869 26.8726 136.232 26.803 136.489 26.6636C136.745 26.5243 136.874 26.341 136.874 26.1136C136.874 25.9303 136.811 25.7836 136.687 25.6736C136.562 25.5636 136.386 25.4683 136.159 25.3876C135.931 25.307 135.656 25.2336 135.334 25.1676C135.04 25.109 134.729 25.0173 134.399 24.8926C134.069 24.768 133.757 24.5993 133.464 24.3866C133.17 24.1666 132.932 23.8916 132.749 23.5616C132.565 23.2316 132.474 22.832 132.474 22.3626C132.474 21.7613 132.668 21.2626 133.057 20.8666C133.445 20.4706 133.948 20.1736 134.564 19.9756C135.18 19.7703 135.836 19.6676 136.533 19.6676Z" fill="#25472B"/>
</svg>
