<svg width="175" height="47" viewBox="0 0 175 47" fill="none" xmlns="http://www.w3.org/2000/svg">
<rect x="1.5" y="1.5" width="172" height="43.0598" rx="21.5299" fill="white" stroke="#F19150" stroke-width="3"/>
<path d="M50.7231 25.9706C51.3978 25.9706 52.0101 25.8716 52.5601 25.6736C53.1175 25.4756 53.5318 25.2813 53.8031 25.0906L55.2111 27.8846C54.8665 28.178 54.2761 28.475 53.4401 28.7756C52.6115 29.0763 51.6251 29.2266 50.4811 29.2266C49.4105 29.2266 48.4058 29.0396 47.4671 28.6656C46.5285 28.2916 45.6998 27.7673 44.9811 27.0926C44.2698 26.4106 43.7088 25.615 43.2981 24.7056C42.8948 23.789 42.6931 22.7953 42.6931 21.7246C42.6931 20.654 42.8948 19.6603 43.2981 18.7436C43.7015 17.8196 44.2588 17.0166 44.9701 16.3346C45.6888 15.6526 46.5175 15.1246 47.4561 14.7506C48.4021 14.3693 49.4105 14.1786 50.4811 14.1786C51.6251 14.1786 52.6115 14.329 53.4401 14.6296C54.2761 14.9303 54.8665 15.2273 55.2111 15.5206L53.8031 18.3146C53.5318 18.1166 53.1175 17.9223 52.5601 17.7316C52.0101 17.5336 51.3978 17.4346 50.7231 17.4346C49.9751 17.4346 49.3225 17.552 48.7651 17.7866C48.2078 18.014 47.7421 18.3293 47.3681 18.7326C46.9941 19.136 46.7155 19.5906 46.5321 20.0966C46.3488 20.6026 46.2571 21.1343 46.2571 21.6916C46.2571 22.2563 46.3488 22.7953 46.5321 23.3086C46.7155 23.8146 46.9941 24.2693 47.3681 24.6726C47.7421 25.076 48.2078 25.395 48.7651 25.6296C49.3225 25.857 49.9751 25.9706 50.7231 25.9706ZM61.8228 29.2266C60.8328 29.2266 59.9528 29.025 59.1828 28.6216C58.4202 28.211 57.8188 27.65 57.3788 26.9386C56.9462 26.22 56.7298 25.3986 56.7298 24.4746C56.7298 23.5506 56.9462 22.7293 57.3788 22.0106C57.8188 21.2846 58.4202 20.7126 59.1828 20.2946C59.9528 19.8766 60.8328 19.6676 61.8228 19.6676C62.8128 19.6676 63.6855 19.8766 64.4408 20.2946C65.1962 20.7126 65.7865 21.2846 66.2118 22.0106C66.6372 22.7293 66.8498 23.5506 66.8498 24.4746C66.8498 25.3986 66.6372 26.22 66.2118 26.9386C65.7865 27.65 65.1962 28.211 64.4408 28.6216C63.6855 29.025 62.8128 29.2266 61.8228 29.2266ZM61.8228 26.4766C62.2042 26.4766 62.5342 26.3923 62.8128 26.2236C63.0915 26.055 63.3078 25.8166 63.4618 25.5086C63.6158 25.2006 63.6928 24.8523 63.6928 24.4636C63.6928 24.0676 63.6158 23.7156 63.4618 23.4076C63.3078 23.0996 63.0915 22.8576 62.8128 22.6816C62.5342 22.5056 62.2042 22.4176 61.8228 22.4176C61.4415 22.4176 61.1078 22.5056 60.8218 22.6816C60.5432 22.8576 60.3232 23.0996 60.1618 23.4076C60.0078 23.7156 59.9308 24.0676 59.9308 24.4636C59.9308 24.8523 60.0078 25.2006 60.1618 25.5086C60.3232 25.8166 60.5432 26.055 60.8218 26.2236C61.1078 26.3923 61.4415 26.4766 61.8228 26.4766ZM74.8051 19.6676C75.4357 19.6676 76.0517 19.796 76.6531 20.0526C77.2544 20.3093 77.7494 20.7163 78.1381 21.2736C78.5267 21.8236 78.7211 22.5496 78.7211 23.4516V28.9626H75.3661V24.0016C75.3661 23.3563 75.2121 22.8723 74.9041 22.5496C74.5961 22.2196 74.1927 22.0546 73.6941 22.0546C73.3641 22.0546 73.0524 22.1426 72.7591 22.3186C72.4731 22.4873 72.2384 22.7293 72.0551 23.0446C71.8791 23.3526 71.7911 23.7083 71.7911 24.1116V28.9626H68.4471V19.9316H71.7911V21.2626C71.8791 21.0206 72.0624 20.7786 72.3411 20.5366C72.6271 20.2873 72.9827 20.082 73.4081 19.9206C73.8407 19.752 74.3064 19.6676 74.8051 19.6676ZM86.9563 19.6676C87.5869 19.6676 88.2029 19.796 88.8043 20.0526C89.4056 20.3093 89.9006 20.7163 90.2893 21.2736C90.6779 21.8236 90.8723 22.5496 90.8723 23.4516V28.9626H87.5283V24.0016C87.5283 23.3563 87.3816 22.8723 87.0883 22.5496C86.8023 22.2196 86.4099 22.0546 85.9113 22.0546C85.5813 22.0546 85.2659 22.1426 84.9653 22.3186C84.6646 22.4873 84.4189 22.7293 84.2283 23.0446C84.0449 23.3526 83.9533 23.7083 83.9533 24.1116V28.9626H80.5983V13.8266H83.9533V21.2626C84.0339 21.0206 84.2136 20.7786 84.4923 20.5366C84.7783 20.2873 85.1339 20.082 85.5593 19.9206C85.9919 19.752 86.4576 19.6676 86.9563 19.6676ZM95.5079 25.1566C95.5299 25.4793 95.6326 25.7653 95.8159 26.0146C95.9993 26.264 96.2523 26.462 96.5749 26.6086C96.9049 26.748 97.2936 26.8176 97.7409 26.8176C98.1663 26.8176 98.5476 26.7736 98.8849 26.6856C99.2296 26.5976 99.5266 26.4876 99.7759 26.3556C100.033 26.2236 100.231 26.088 100.37 25.9486L101.668 28.0166C101.485 28.2146 101.224 28.409 100.887 28.5996C100.557 28.783 100.121 28.9333 99.5779 29.0506C99.0353 29.168 98.3496 29.2266 97.5209 29.2266C96.5236 29.2266 95.6363 29.0396 94.8589 28.6656C94.0816 28.2916 93.4693 27.7416 93.0219 27.0156C92.5746 26.2896 92.3509 25.4023 92.3509 24.3536C92.3509 23.4736 92.5416 22.6816 92.9229 21.9776C93.3116 21.2663 93.8726 20.7053 94.6059 20.2946C95.3393 19.8766 96.2229 19.6676 97.2569 19.6676C98.2396 19.6676 99.0903 19.8473 99.8089 20.2066C100.535 20.566 101.092 21.1013 101.481 21.8126C101.877 22.5166 102.075 23.3966 102.075 24.4526C102.075 24.5113 102.071 24.6286 102.064 24.8046C102.064 24.9806 102.057 25.098 102.042 25.1566H95.5079ZM98.9289 23.4076C98.9216 23.173 98.8593 22.942 98.7419 22.7146C98.6246 22.48 98.4486 22.2893 98.2139 22.1426C97.9793 21.9886 97.6786 21.9116 97.3119 21.9116C96.9453 21.9116 96.6336 21.985 96.3769 22.1316C96.1276 22.271 95.9369 22.4543 95.8049 22.6816C95.6729 22.909 95.5996 23.151 95.5849 23.4076H98.9289ZM108.698 26.5976C109.116 26.5976 109.461 26.528 109.732 26.3886C110.003 26.242 110.187 26.1246 110.282 26.0366L111.811 28.3026C111.694 28.398 111.492 28.5226 111.206 28.6766C110.92 28.8233 110.561 28.9516 110.128 29.0616C109.703 29.1716 109.215 29.2266 108.665 29.2266C107.631 29.2266 106.722 29.0323 105.937 28.6436C105.152 28.2476 104.54 27.6903 104.1 26.9716C103.667 26.253 103.451 25.4096 103.451 24.4416C103.451 23.4663 103.667 22.623 104.1 21.9116C104.54 21.2003 105.152 20.6503 105.937 20.2616C106.722 19.8656 107.631 19.6676 108.665 19.6676C109.208 19.6676 109.692 19.7263 110.117 19.8436C110.55 19.9536 110.913 20.082 111.206 20.2286C111.499 20.368 111.705 20.489 111.822 20.5916L110.26 22.8796C110.209 22.8283 110.113 22.755 109.974 22.6596C109.842 22.5643 109.67 22.48 109.457 22.4066C109.244 22.3333 108.991 22.2966 108.698 22.2966C108.339 22.2966 108.001 22.3883 107.686 22.5716C107.378 22.755 107.129 23.008 106.938 23.3306C106.747 23.6533 106.652 24.0236 106.652 24.4416C106.652 24.8596 106.747 25.2336 106.938 25.5636C107.129 25.8863 107.378 26.1393 107.686 26.3226C108.001 26.506 108.339 26.5976 108.698 26.5976ZM115.832 25.1566C115.854 25.4793 115.957 25.7653 116.14 26.0146C116.323 26.264 116.576 26.462 116.899 26.6086C117.229 26.748 117.618 26.8176 118.065 26.8176C118.49 26.8176 118.872 26.7736 119.209 26.6856C119.554 26.5976 119.851 26.4876 120.1 26.3556C120.357 26.2236 120.555 26.088 120.694 25.9486L121.992 28.0166C121.809 28.2146 121.548 28.409 121.211 28.5996C120.881 28.783 120.445 28.9333 119.902 29.0506C119.359 29.168 118.674 29.2266 117.845 29.2266C116.848 29.2266 115.96 29.0396 115.183 28.6656C114.406 28.2916 113.793 27.7416 113.346 27.0156C112.899 26.2896 112.675 25.4023 112.675 24.3536C112.675 23.4736 112.866 22.6816 113.247 21.9776C113.636 21.2663 114.197 20.7053 114.93 20.2946C115.663 19.8766 116.547 19.6676 117.581 19.6676C118.564 19.6676 119.414 19.8473 120.133 20.2066C120.859 20.566 121.416 21.1013 121.805 21.8126C122.201 22.5166 122.399 23.3966 122.399 24.4526C122.399 24.5113 122.395 24.6286 122.388 24.8046C122.388 24.9806 122.381 25.098 122.366 25.1566H115.832ZM119.253 23.4076C119.246 23.173 119.183 22.942 119.066 22.7146C118.949 22.48 118.773 22.2893 118.538 22.1426C118.303 21.9886 118.003 21.9116 117.636 21.9116C117.269 21.9116 116.958 21.985 116.701 22.1316C116.452 22.271 116.261 22.4543 116.129 22.6816C115.997 22.909 115.924 23.151 115.909 23.4076H119.253ZM127.185 28.9626H123.841V19.9316H127.185V21.3286H127.13C127.189 21.16 127.332 20.9473 127.559 20.6906C127.787 20.4266 128.106 20.192 128.516 19.9866C128.927 19.774 129.429 19.6676 130.023 19.6676C130.441 19.6676 130.826 19.7336 131.178 19.8656C131.53 19.9903 131.787 20.1113 131.948 20.2286L130.65 22.9456C130.548 22.821 130.364 22.6926 130.1 22.5606C129.844 22.4213 129.521 22.3516 129.132 22.3516C128.685 22.3516 128.315 22.4653 128.021 22.6926C127.735 22.92 127.523 23.195 127.383 23.5176C127.251 23.8403 127.185 24.1446 127.185 24.4306V28.9626Z" fill="#25472B"/>
</svg>
