<svg width="28" height="28" viewBox="0 0 28 28" fill="none" xmlns="http://www.w3.org/2000/svg">
<path d="M14.0013 0C10.1991 0 9.72194 0.0166254 8.22859 0.0845845C6.73815 0.152835 5.72081 0.388796 4.83063 0.735008C3.90983 1.09259 3.12874 1.57093 2.35057 2.3494C1.57181 3.12757 1.09347 3.90867 0.734716 4.82917C0.387629 5.71964 0.151376 6.73728 0.0842924 8.22713C0.0175001 9.72048 0 10.1979 0 14.0001C0 17.8024 0.0169171 18.2781 0.0845845 19.7714C0.153127 21.2618 0.389087 22.2792 0.735008 23.1694C1.09289 24.0902 1.57122 24.8713 2.34969 25.6494C3.12757 26.4282 3.90867 26.9077 4.82888 27.2653C5.71964 27.6115 6.73728 27.8475 8.22742 27.9157C9.72077 27.9837 10.1976 28.0003 13.9996 28.0003C17.8021 28.0003 18.2778 27.9837 19.7711 27.9157C21.2616 27.8475 22.2801 27.6115 23.1708 27.2653C24.0913 26.9077 24.8713 26.4282 25.6491 25.6494C26.4279 24.8713 26.9062 24.0902 27.265 23.1697C27.6092 22.2792 27.8454 21.2616 27.9154 19.7717C27.9825 18.2784 28 17.8024 28 14.0001C28 10.1979 27.9825 9.72077 27.9154 8.22742C27.8454 6.73699 27.6092 5.71964 27.265 4.82947C26.9062 3.90867 26.4279 3.12757 25.6491 2.3494C24.8704 1.57064 24.0916 1.0923 23.17 0.735008C22.2774 0.388796 21.2595 0.152835 19.7691 0.0845845C18.2757 0.0166254 17.8003 0 13.9969 0H14.0013ZM12.7454 2.52294C13.1181 2.52236 13.5341 2.52294 14.0013 2.52294C17.7393 2.52294 18.1824 2.53636 19.6585 2.60344C21.0236 2.66586 21.7644 2.89395 22.2579 3.08557C22.9112 3.33933 23.377 3.64266 23.8667 4.13267C24.3568 4.62267 24.6601 5.08934 24.9144 5.74268C25.1061 6.23561 25.3344 6.97645 25.3966 8.34146C25.4636 9.81731 25.4782 10.2606 25.4782 13.9969C25.4782 17.7332 25.4636 18.1766 25.3966 19.6524C25.3341 21.0174 25.1061 21.7583 24.9144 22.2512C24.6607 22.9045 24.3568 23.3697 23.8667 23.8595C23.3767 24.3495 22.9115 24.6528 22.2579 24.9065C21.765 25.0991 21.0236 25.3266 19.6585 25.389C18.1827 25.4561 17.7393 25.4706 14.0013 25.4706C10.263 25.4706 9.81994 25.4561 8.34409 25.389C6.97907 25.326 6.23823 25.0979 5.74443 24.9063C5.09109 24.6525 4.62442 24.3492 4.13442 23.8592C3.64441 23.3692 3.34108 22.9037 3.08674 22.25C2.89511 21.7571 2.66674 21.0163 2.60461 19.6512C2.53753 18.1754 2.52411 17.7321 2.52411 13.9934C2.52411 10.2548 2.53753 9.81381 2.60461 8.33796C2.66703 6.97295 2.89511 6.23211 3.08674 5.7386C3.34049 5.08526 3.64441 4.61859 4.13442 4.12858C4.62442 3.63858 5.09109 3.33524 5.74443 3.08091C6.23794 2.8884 6.97907 2.6609 8.34409 2.59819C9.6356 2.53986 10.1361 2.52236 12.7454 2.51944V2.52294ZM21.4745 4.84755C20.547 4.84755 19.7945 5.59918 19.7945 6.52698C19.7945 7.45449 20.547 8.207 21.4745 8.207C22.402 8.207 23.1545 7.45449 23.1545 6.52698C23.1545 5.59947 22.402 4.84697 21.4745 4.84697V4.84755ZM14.0013 6.81049C10.0308 6.81049 6.81165 10.0296 6.81165 14.0001C6.81165 17.9706 10.0308 21.1883 14.0013 21.1883C17.9718 21.1883 21.1898 17.9706 21.1898 14.0001C21.1898 10.0296 17.9715 6.81049 14.001 6.81049H14.0013ZM14.0013 9.33343C16.5785 9.33343 18.668 11.4227 18.668 14.0001C18.668 16.5773 16.5785 18.6669 14.0013 18.6669C11.4238 18.6669 9.3346 16.5773 9.3346 14.0001C9.3346 11.4227 11.4238 9.33343 14.0013 9.33343Z" fill="white"/>
</svg>
