<svg width="177" height="93" viewBox="0 0 177 93" fill="none" xmlns="http://www.w3.org/2000/svg">
<mask id="mask0_657_3098" style="mask-type:luminance" maskUnits="userSpaceOnUse" x="122" y="0" width="40" height="39">
<path d="M122.248 0H161.685V38.6328H122.248V0Z" fill="white"/>
</mask>
<g mask="url(#mask0_657_3098)">
<path d="M158.542 15.128C158.301 13.5473 156.932 12.4245 155.488 12.6313C155.097 12.6904 154.751 12.8381 154.436 13.045V13.0597C154.21 13.2075 154.029 13.3995 153.864 13.6064C152.164 15.0099 151.051 13.8871 150.736 13.4734L149.577 5.86503L141.696 7.01737C141.109 6.76622 140.012 6.01277 140.809 4.18085C140.974 3.97402 141.094 3.73765 141.185 3.48649V3.47172C141.305 3.13193 141.335 2.74782 141.29 2.37848C141.064 0.945445 139.575 -0.0148362 137.951 0.22154C136.342 0.457917 135.198 1.80231 135.409 3.23534C135.469 3.61946 135.62 3.95925 135.83 4.25472L135.845 4.26949C135.996 4.47632 136.176 4.66837 136.402 4.83088C137.71 6.35256 136.868 7.38671 136.402 7.80036L128.52 8.9527L129.648 16.4133H129.618C129.618 16.4133 129.062 18.6146 126.61 17.5952C126.4 17.4327 126.159 17.3145 125.903 17.2259H125.888C125.542 17.1077 125.151 17.0634 124.775 17.1225C123.316 17.3293 122.339 18.7919 122.579 20.3874C122.82 21.983 124.189 23.1057 125.648 22.8841C126.024 22.8398 126.385 22.6921 126.685 22.4705H126.701C126.911 22.3228 127.107 22.1307 127.272 21.9239C129.303 20.2397 130.491 22.175 130.491 22.175H130.521L131.649 29.6357L139.244 28.5276C139.244 28.5276 141.485 29.089 140.433 31.4823C140.282 31.704 140.162 31.9403 140.072 32.1915C139.951 32.546 139.906 32.9154 139.966 33.2995C140.177 34.7178 141.666 35.678 143.29 35.4417C144.915 35.2053 146.058 33.8609 145.832 32.4279C145.787 32.0585 145.637 31.704 145.411 31.4085C145.246 31.1869 145.065 30.9948 144.84 30.8323C143.14 28.8527 145.11 27.6708 145.11 27.6708L152.706 26.5628L151.563 18.9544C151.743 18.4816 152.465 17.0781 154.511 17.935C154.736 18.0975 154.977 18.2157 155.233 18.3043C155.594 18.4225 155.97 18.4521 156.361 18.4078C157.805 18.1862 158.782 16.7236 158.542 15.128Z" fill="#5F8D4E"/>
</g>
<mask id="mask1_657_3098" style="mask-type:luminance" maskUnits="userSpaceOnUse" x="122" y="8" width="32" height="31">
<path d="M122.248 8.37659H153.984V38.6328H122.248V8.37659Z" fill="white"/>
</mask>
<g mask="url(#mask1_657_3098)">
<path d="M125.648 22.8843C126.024 22.84 126.385 22.6922 126.685 22.4706H126.701C126.911 22.3229 127.107 22.1308 127.272 21.924C129.303 20.2398 130.491 22.1751 130.491 22.1751H130.521L131.649 29.6358L139.244 28.5278C139.244 28.5278 141.486 29.0892 140.433 31.4825C140.282 31.7041 140.162 31.9405 140.072 32.1916C139.951 32.5462 139.906 32.9155 139.966 33.2996C140.177 34.7179 141.666 35.6782 143.29 35.4418C144.915 35.2054 146.058 33.861 145.832 32.428C145.787 32.0586 145.637 31.7041 145.411 31.4086C145.246 31.187 145.065 30.9949 144.84 30.8324C143.14 28.8528 145.11 27.6709 145.11 27.6709L152.706 26.5629L152.164 22.9581C138.086 22.057 132.747 14.1531 130.746 8.62781L128.52 8.95283L129.648 16.4135H129.618C129.618 16.4135 129.062 18.6147 126.61 17.5953C126.4 17.4328 126.159 17.3146 125.903 17.226H125.888C125.542 17.1078 125.151 17.0635 124.775 17.1226C123.316 17.3294 122.339 18.792 122.579 20.3875C122.82 21.9831 124.189 23.1059 125.648 22.8843Z" fill="#2D6237"/>
</g>
<mask id="mask2_657_3098" style="mask-type:luminance" maskUnits="userSpaceOnUse" x="146" y="19" width="31" height="31">
<path d="M146.285 19.7227H176.833V49.9789H146.285V19.7227Z" fill="white"/>
</mask>
<g mask="url(#mask2_657_3098)">
<path d="M161.385 25.6174C161.385 25.6174 159.701 27.1981 161.821 28.7641C162.062 28.8823 162.303 29.0301 162.498 29.2073C162.784 29.4585 163.01 29.754 163.145 30.1233C163.671 31.4677 162.859 33.0189 161.325 33.5951C159.791 34.1713 158.121 33.5508 157.595 32.2064C157.46 31.8518 157.414 31.4825 157.46 31.1131V31.0984C157.49 30.8472 157.55 30.5813 157.67 30.3449C158.151 27.7743 155.835 27.7152 155.835 27.7152L148.676 30.4188L151.428 37.4658C151.428 37.4658 153.023 39.1056 154.632 37.0225C154.752 36.7862 154.888 36.5646 155.068 36.3577H155.083C155.324 36.0918 155.64 35.8702 156.001 35.7373C157.369 35.2202 158.964 36.018 159.55 37.5248C160.137 39.017 159.505 40.6568 158.136 41.1739C157.775 41.3069 157.384 41.3512 157.023 41.3216H157.008C156.738 41.2921 156.482 41.2182 156.226 41.1148C153.624 40.6273 153.549 42.9024 153.549 42.9024L156.316 49.9494L176.185 42.4444L168.56 22.9138L161.385 25.6174Z" fill="#F19150"/>
</g>
<mask id="mask3_657_3098" style="mask-type:luminance" maskUnits="userSpaceOnUse" x="153" y="19" width="24" height="31">
<path d="M153.986 19.7227H176.833V49.9789H153.986V19.7227Z" fill="white"/>
</mask>
<g mask="url(#mask3_657_3098)">
<path d="M156.316 49.9494L155.248 47.2311C160.257 45.8424 170.635 40.8194 167.596 23.2832L168.559 22.9138L176.185 42.4444L156.316 49.9494Z" fill="#DD7631"/>
</g>
<path d="M54.5692 72.537L48.5529 85.2422L54.0879 87.7833L52.5838 90.9153L43.3789 86.6605L50.8993 70.8232L54.5692 72.537Z" fill="white"/>
<path d="M59.5645 74.9705C60.0758 74.6602 60.6474 74.5568 61.249 74.675C61.8807 74.7932 62.362 75.1182 62.6929 75.6205C63.0539 76.0933 63.1742 76.6547 63.0539 77.2751C62.9336 77.8661 62.6027 78.3388 62.0913 78.6934C61.5649 79.0184 60.9783 79.1071 60.3466 78.9889C59.7449 78.8707 59.2787 78.5604 58.9628 78.0434C58.6319 77.5411 58.5417 76.9797 58.662 76.3887C58.7823 75.7682 59.0832 75.2955 59.5645 74.9705ZM58.0604 80.8208L55.8945 91.5168L59.5645 92.226L61.7303 81.5299L58.0604 80.8208Z" fill="white"/>
<path d="M63.7153 93.0001L62.873 82.1268L66.6633 81.8904L66.7836 83.0132H66.8438C67.7613 81.9938 68.7841 81.4472 69.9121 81.3586C70.4235 81.329 70.965 81.3586 71.5365 81.4767C72.093 81.5654 72.6195 81.7427 73.1008 82.0086C73.6121 82.245 74.0333 82.6291 74.3642 83.1314C74.7252 83.6485 74.9207 84.2837 74.9658 85.0224L75.5073 92.1728L71.7772 92.4683L71.2959 86.3225C71.2507 85.7758 71.0251 85.3031 70.6341 84.9042C70.228 84.4758 69.7467 84.2837 69.1902 84.3133C68.5885 84.3576 68.0621 84.6087 67.6259 85.0815C67.1747 85.5542 66.9792 86.0713 67.0243 86.6179L67.5056 92.7637L63.7153 93.0001Z" fill="white"/>
<path d="M87.8364 81.9302L80.4966 85.1803C80.8124 85.8895 81.2787 86.3327 81.8803 86.4804C82.4819 86.5986 83.0535 86.5395 83.625 86.3031C84.1815 86.0372 84.6027 85.7565 84.8884 85.4758C85.1592 85.2099 85.3998 84.7371 85.6104 84.0575L88.6787 84.1757C88.3929 86.3918 87.0242 88.0464 84.5876 89.1396C83.0986 89.8192 81.5494 89.8931 79.9551 89.376C78.3909 88.8294 77.2929 87.8396 76.6462 86.4213C75.9694 84.9735 75.9543 83.4666 76.586 81.9302C77.1876 80.3937 78.2405 79.3005 79.7145 78.6209C81.3088 77.9118 82.8128 77.7936 84.2267 78.2663C85.6706 78.7095 86.7836 79.7732 87.5958 81.4574C87.7161 81.7381 87.7913 81.9006 87.8364 81.9302ZM79.7145 83.3484L83.5649 81.6347C83.234 81.0881 82.858 80.7483 82.4218 80.6301C81.9706 80.5119 81.4742 80.571 80.9177 80.8074C80.3161 81.0881 79.91 81.4426 79.7145 81.8711C79.5039 82.3143 79.5039 82.8018 79.7145 83.3484Z" fill="white"/>
<path d="M12.2732 45.8211V67.0359H0V14.0875H12.2732V35.1841H29.6602V14.0875H41.9334V67.0359H29.6602V45.8211H12.2732Z" fill="white"/>
<path d="M83.7015 52.1443H59.3958C59.3958 54.4785 60.1478 56.1922 61.682 57.2855C63.2011 58.3935 64.8405 58.9401 66.6153 58.9401C68.4954 58.9401 69.9844 58.7037 71.0674 58.231C72.1503 57.7287 73.3836 56.7388 74.7974 55.2763L83.16 59.4128C79.6706 65.1302 73.8649 67.9815 65.773 67.9815C60.7194 67.9815 56.3877 66.2973 52.7779 62.8994C49.1682 59.5163 47.3633 55.424 47.3633 50.6078C47.3633 45.8064 49.1682 41.7142 52.7779 38.3162C56.3877 34.8888 60.7194 33.175 65.773 33.175C71.0974 33.175 75.4291 34.6967 78.7682 37.7253C82.0922 40.7243 83.7617 45.0234 83.7617 50.6078C83.7617 51.4056 83.7316 51.9079 83.7015 52.1443ZM59.6966 45.8803H72.4511C72.1653 44.1518 71.4584 42.8369 70.3454 41.921C69.2625 40.9755 67.8487 40.5027 66.134 40.5027C64.2088 40.5027 62.6596 41.005 61.5015 41.9801C60.3734 42.9699 59.7718 44.27 59.6966 45.8803Z" fill="white"/>
<path d="M89.1523 67.036V11.842H100.704V67.036H89.1523Z" fill="white"/>
<path d="M143.024 38.1981C146.183 41.5516 147.777 45.6735 147.777 50.5487C147.777 55.4388 146.183 59.5754 143.024 62.9585C139.896 66.3121 135.925 67.9815 131.112 67.9815C126.66 67.9815 122.99 66.6223 120.102 63.904V83.7005H108.551V34.1206H119.982V37.8435H120.102C122.99 34.741 126.66 33.175 131.112 33.175C135.925 33.175 139.896 34.8592 143.024 38.1981ZM133.217 56.1036C134.737 54.6558 135.504 52.7943 135.504 50.5487C135.504 48.2736 134.782 46.4121 133.338 44.9939C131.894 43.5756 129.984 42.8665 127.622 42.8665C125.366 42.8665 123.501 43.6052 122.027 45.053C120.583 46.4712 119.861 48.3032 119.861 50.5487C119.861 52.7943 120.598 54.6558 122.087 56.1036C123.606 57.5662 125.457 58.2901 127.622 58.2901C129.863 58.2901 131.728 57.5662 133.217 56.1036Z" fill="white"/>
</svg>
