<svg width="218" height="117" viewBox="0 0 218 117" fill="none" xmlns="http://www.w3.org/2000/svg">
<mask id="mask0_729_1663" style="mask-type:luminance" maskUnits="userSpaceOnUse" x="150" y="0" width="49" height="49">
<path d="M150.344 0H198.739V48.2656H150.344V0Z" fill="white"/>
</mask>
<g mask="url(#mask0_729_1663)">
<path d="M194.881 18.9001C194.586 16.9252 192.906 15.5225 191.134 15.7809C190.655 15.8547 190.23 16.0393 189.842 16.2977V16.3161C189.566 16.5007 189.344 16.7406 189.141 16.999C187.055 18.7525 185.69 17.3497 185.302 16.8329L183.881 7.32747L174.209 8.76713C173.489 8.45336 172.142 7.51204 173.12 5.22335C173.323 4.96495 173.471 4.66964 173.582 4.35586V4.3374C173.729 3.91289 173.766 3.43301 173.711 2.97157C173.434 1.18123 171.607 -0.0184932 169.613 0.276822C167.638 0.572137 166.236 2.25174 166.494 4.04209C166.568 4.52198 166.752 4.94649 167.011 5.31564L167.029 5.33409C167.214 5.5925 167.435 5.83244 167.712 6.03547C169.318 7.93656 168.284 9.22856 167.712 9.74536L158.041 11.185L159.425 20.5059H159.388C159.388 20.5059 158.705 23.256 155.697 21.9825C155.438 21.7794 155.143 21.6318 154.829 21.521H154.811C154.386 21.3734 153.906 21.318 153.445 21.3918C151.655 21.6503 150.455 23.4775 150.75 25.4709C151.045 27.4643 152.725 28.867 154.515 28.5902C154.977 28.5348 155.42 28.3502 155.789 28.0734H155.807C156.066 27.8888 156.306 27.6488 156.509 27.3904C159 25.2863 160.459 27.7042 160.459 27.7042H160.496L161.88 37.0251L171.201 35.6408C171.201 35.6408 173.951 36.3422 172.659 39.3322C172.474 39.6091 172.327 39.9044 172.216 40.2182C172.068 40.6612 172.013 41.1226 172.087 41.6025C172.345 43.3744 174.172 44.5741 176.166 44.2788C178.159 43.9835 179.562 42.3038 179.285 40.5135C179.23 40.0521 179.045 39.6091 178.768 39.24C178.565 38.9631 178.344 38.7232 178.067 38.5201C175.981 36.0469 178.399 34.5703 178.399 34.5703L187.72 33.186L186.317 23.6805C186.539 23.0899 187.425 21.3365 189.935 22.407C190.212 22.61 190.507 22.7577 190.821 22.8684C191.264 23.0161 191.725 23.053 192.205 22.9976C193.977 22.7208 195.177 20.8935 194.881 18.9001Z" fill="#5F8D4E"/>
</g>
<mask id="mask1_729_1663" style="mask-type:luminance" maskUnits="userSpaceOnUse" x="150" y="10" width="40" height="39">
<path d="M150.344 10.4652H189.289V48.2655H150.344V10.4652Z" fill="white"/>
</mask>
<g mask="url(#mask1_729_1663)">
<path d="M154.515 28.5902C154.977 28.5349 155.42 28.3503 155.789 28.0734H155.807C156.066 27.8889 156.306 27.6489 156.509 27.3905C159 25.2864 160.459 27.7043 160.459 27.7043H160.496L161.88 37.0252L171.201 35.6409C171.201 35.6409 173.951 36.3423 172.659 39.3323C172.474 39.6092 172.327 39.9045 172.216 40.2183C172.068 40.6612 172.013 41.1227 172.087 41.6026C172.345 43.3745 174.172 44.5742 176.166 44.2789C178.159 43.9835 179.562 42.3039 179.285 40.5136C179.23 40.0522 179.045 39.6092 178.768 39.24C178.565 38.9632 178.344 38.7232 178.067 38.5202C175.981 36.0469 178.399 34.5704 178.399 34.5704L187.72 33.1861L187.055 28.6825C169.779 27.5566 163.227 17.682 160.772 10.7791L158.041 11.1851L159.425 20.506H159.388C159.388 20.506 158.705 23.2561 155.697 21.9826C155.438 21.7795 155.143 21.6319 154.829 21.5211H154.811C154.386 21.3735 153.906 21.3181 153.445 21.3919C151.655 21.6503 150.455 23.4776 150.75 25.471C151.045 27.4644 152.725 28.8671 154.515 28.5902Z" fill="#285430"/>
</g>
<mask id="mask2_729_1663" style="mask-type:luminance" maskUnits="userSpaceOnUse" x="179" y="24" width="39" height="39">
<path d="M179.838 24.6403H217.325V62.4407H179.838V24.6403Z" fill="white"/>
</mask>
<g mask="url(#mask2_729_1663)">
<path d="M198.37 32.0048C198.37 32.0048 196.302 33.9797 198.905 35.9362C199.2 36.0838 199.495 36.2684 199.735 36.4899C200.086 36.8037 200.363 37.1728 200.529 37.6342C201.175 39.3138 200.178 41.2518 198.296 41.9717C196.413 42.6915 194.364 41.9163 193.718 40.2367C193.552 39.7937 193.497 39.3323 193.552 38.8709V38.8524C193.589 38.5386 193.663 38.2064 193.811 37.9111C194.401 34.6995 191.559 34.6257 191.559 34.6257L182.773 38.0034L186.151 46.8075C186.151 46.8075 188.107 48.8562 190.082 46.2537C190.23 45.9584 190.396 45.6816 190.617 45.4232H190.636C190.931 45.0909 191.319 44.8141 191.762 44.648C193.441 44.002 195.398 44.9987 196.118 46.8813C196.838 48.7455 196.062 50.7942 194.383 51.4402C193.94 51.6063 193.46 51.6617 193.017 51.6248H192.998C192.666 51.5879 192.352 51.4956 192.039 51.3664C188.846 50.7573 188.753 53.5997 188.753 53.5997L192.149 62.4038L216.531 53.0275L207.174 28.6271L198.37 32.0048Z" fill="#F19150"/>
</g>
<mask id="mask3_729_1663" style="mask-type:luminance" maskUnits="userSpaceOnUse" x="189" y="24" width="29" height="39">
<path d="M189.289 24.6403H217.325V62.4407H189.289V24.6403Z" fill="white"/>
</mask>
<g mask="url(#mask3_729_1663)">
<path d="M192.149 62.4038L190.839 59.0077C196.985 57.2727 209.72 50.9972 205.992 29.0886L207.173 28.6271L216.531 53.0275L192.149 62.4038Z" fill="#DD7631"/>
</g>
<path d="M67.2888 90.6235L59.9059 106.497L66.6982 109.671L64.8524 113.584L53.5566 108.269L62.7852 88.4825L67.2888 90.6235Z" fill="#A4BE7B"/>
<path d="M73.421 93.6636C74.0486 93.276 74.75 93.1468 75.4882 93.2944C76.2634 93.4421 76.8541 93.8482 77.2601 94.4757C77.7031 95.0663 77.8508 95.7677 77.7031 96.5429C77.5554 97.2812 77.1494 97.8718 76.5218 98.3148C75.8758 98.7209 75.156 98.8316 74.3808 98.6839C73.6425 98.5363 73.0703 98.1487 72.6827 97.5027C72.2767 96.8751 72.1659 96.1738 72.3136 95.4355C72.4613 94.6603 72.8304 94.0697 73.421 93.6636ZM71.5753 100.973L68.9175 114.336L73.421 115.222L76.0789 101.859L71.5753 100.973Z" fill="#A4BE7B"/>
<path d="M78.5171 116.189L77.4835 102.604L82.1347 102.309L82.2823 103.712H82.3562C83.482 102.438 84.7371 101.755 86.1214 101.644C86.749 101.608 87.4134 101.644 88.1148 101.792C88.7977 101.903 89.4437 102.124 90.0343 102.457C90.6619 102.752 91.1787 103.232 91.5848 103.859C92.0277 104.505 92.2677 105.299 92.323 106.222L92.9875 115.155L88.4101 115.524L87.8195 107.846C87.7641 107.163 87.4873 106.573 87.0074 106.074C86.509 105.539 85.9184 105.299 85.2355 105.336C84.4972 105.391 83.8512 105.705 83.3159 106.296C82.7622 106.886 82.5223 107.532 82.5776 108.215L83.1683 115.893L78.5171 116.189Z" fill="#A4BE7B"/>
<path d="M108.112 102.359L99.1052 106.419C99.4928 107.305 100.065 107.859 100.803 108.044C101.542 108.191 102.243 108.117 102.944 107.822C103.627 107.49 104.144 107.139 104.495 106.789C104.827 106.456 105.122 105.866 105.381 105.017L109.146 105.164C108.795 107.933 107.116 110 104.126 111.366C102.298 112.215 100.397 112.307 98.4407 111.661C96.5211 110.978 95.1738 109.742 94.3801 107.97C93.5495 106.161 93.5311 104.278 94.3063 102.359C95.0446 100.439 96.3366 99.0734 98.1454 98.2244C100.102 97.3384 101.948 97.1908 103.683 97.7814C105.454 98.3351 106.82 99.664 107.817 101.768C107.965 102.119 108.057 102.322 108.112 102.359ZM98.1454 104.131L102.87 101.99C102.464 101.307 102.003 100.882 101.468 100.735C100.914 100.587 100.305 100.661 99.622 100.956C98.8837 101.307 98.3853 101.75 98.1454 102.285C97.887 102.839 97.887 103.448 98.1454 104.131Z" fill="#A4BE7B"/>
<path d="M15.3861 57.2462V83.7507H0.325012V17.6002H15.3861V43.957H36.7226V17.6002H51.7837V83.7507H36.7226V57.2462H15.3861Z" fill="#285430"/>
<path d="M103.039 65.1459H73.2125C73.2125 68.0622 74.1353 70.2032 76.018 71.569C77.8821 72.9533 79.894 73.6362 82.0719 73.6362C84.3791 73.6362 86.2063 73.3409 87.5352 72.7503C88.8642 72.1227 90.3777 70.8861 92.1126 69.0589L102.375 74.2269C98.0928 81.3698 90.9683 84.932 81.0383 84.932C74.8367 84.932 69.521 82.8279 65.0913 78.5828C60.6616 74.3561 58.4467 69.2434 58.4467 63.2264C58.4467 57.2278 60.6616 52.1152 65.0913 47.87C69.521 43.5879 74.8367 41.4469 81.0383 41.4469C87.5722 41.4469 92.8878 43.348 96.9853 47.1317C101.064 50.8785 103.113 56.2496 103.113 63.2264C103.113 64.2231 103.076 64.8506 103.039 65.1459ZM73.5816 57.3201H89.2333C88.8826 55.1606 88.0151 53.5179 86.6493 52.3736C85.3204 51.1923 83.5854 50.6017 81.4813 50.6017C79.1188 50.6017 77.2177 51.2292 75.7965 52.4474C74.4122 53.684 73.6739 55.3082 73.5816 57.3201Z" fill="#285430"/>
<path d="M109.73 83.7508V14.7947H123.905V83.7508H109.73Z" fill="#285430"/>
<path d="M175.839 47.7223C179.715 51.9121 181.671 57.0617 181.671 63.1526C181.671 69.2619 179.715 74.4299 175.839 78.6566C171.999 82.8464 167.127 84.932 161.22 84.932C155.757 84.932 151.254 83.234 147.71 79.8379V104.57H133.535V42.6282H147.562V47.2794H147.71C151.254 43.4034 155.757 41.4469 161.22 41.4469C167.127 41.4469 171.999 43.551 175.839 47.7223ZM163.804 70.0925C165.669 68.2836 166.61 65.958 166.61 63.1526C166.61 60.3101 165.724 57.9845 163.952 56.2127C162.18 54.4408 159.836 53.5548 156.938 53.5548C154.17 53.5548 151.881 54.4777 150.072 56.2865C148.3 58.0584 147.414 60.3471 147.414 63.1526C147.414 65.958 148.319 68.2836 150.146 70.0925C152.01 71.9197 154.281 72.8241 156.938 72.8241C159.689 72.8241 161.977 71.9197 163.804 70.0925Z" fill="#285430"/>
</svg>
