<svg width="217" height="117" viewBox="0 0 217 117" fill="none" xmlns="http://www.w3.org/2000/svg">
<mask id="mask0_284_2712" style="mask-type:luminance" maskUnits="userSpaceOnUse" x="150" y="0" width="49" height="49">
<path d="M150.019 0H198.414V48.2656H150.019V0Z" fill="white"/>
</mask>
<g mask="url(#mask0_284_2712)">
<path d="M194.556 18.9001C194.261 16.9252 192.581 15.5225 190.809 15.7809C190.329 15.8547 189.905 16.0393 189.517 16.2977V16.3161C189.241 16.5007 189.019 16.7406 188.816 16.999C186.73 18.7525 185.364 17.3497 184.977 16.8329L183.556 7.32747L173.884 8.76713C173.164 8.45335 171.817 7.51204 172.795 5.22335C172.998 4.96495 173.146 4.66963 173.257 4.35586V4.3374C173.404 3.91288 173.441 3.433 173.386 2.97157C173.109 1.18122 171.282 -0.018497 169.288 0.276818C167.313 0.572133 165.911 2.25174 166.169 4.04209C166.243 4.52197 166.427 4.94649 166.686 5.31563L166.704 5.33409C166.889 5.59249 167.11 5.83243 167.387 6.03546C168.993 7.93655 167.959 9.22856 167.387 9.74536L157.716 11.185L159.1 20.5059H159.063C159.063 20.5059 158.38 23.256 155.372 21.9825C155.113 21.7794 154.818 21.6318 154.504 21.521H154.486C154.061 21.3734 153.581 21.318 153.12 21.3918C151.329 21.6502 150.13 23.4775 150.425 25.4709C150.72 27.4643 152.4 28.867 154.19 28.5901C154.652 28.5348 155.095 28.3502 155.464 28.0733H155.482C155.741 27.8888 155.981 27.6488 156.184 27.3904C158.675 25.2863 160.134 27.7042 160.134 27.7042H160.17L161.555 37.0251L170.876 35.6408C170.876 35.6408 173.626 36.3422 172.334 39.3322C172.149 39.6091 172.001 39.9044 171.891 40.2182C171.743 40.6612 171.688 41.1226 171.762 41.6025C172.02 43.3744 173.847 44.5741 175.841 44.2788C177.834 43.9834 179.237 42.3038 178.96 40.5135C178.904 40.0521 178.72 39.6091 178.443 39.2399C178.24 38.9631 178.019 38.7231 177.742 38.5201C175.656 36.0469 178.074 34.5703 178.074 34.5703L187.395 33.186L185.992 23.6805C186.214 23.0899 187.099 21.3365 189.61 22.407C189.887 22.61 190.182 22.7577 190.496 22.8684C190.939 23.0161 191.4 23.053 191.88 22.9976C193.652 22.7208 194.851 20.8935 194.556 18.9001Z" fill="#5F8D4E"/>
</g>
<mask id="mask1_284_2712" style="mask-type:luminance" maskUnits="userSpaceOnUse" x="150" y="10" width="39" height="39">
<path d="M150.019 10.4652H188.964V48.2655H150.019V10.4652Z" fill="white"/>
</mask>
<g mask="url(#mask1_284_2712)">
<path d="M154.19 28.5902C154.652 28.5349 155.095 28.3503 155.464 28.0734H155.482C155.741 27.8889 155.981 27.6489 156.184 27.3905C158.675 25.2864 160.134 27.7043 160.134 27.7043H160.17L161.555 37.0252L170.876 35.6409C170.876 35.6409 173.626 36.3423 172.334 39.3323C172.149 39.6092 172.001 39.9045 171.891 40.2183C171.743 40.6612 171.688 41.1227 171.762 41.6026C172.02 43.3745 173.847 44.5742 175.841 44.2789C177.834 43.9835 179.237 42.3039 178.96 40.5136C178.904 40.0522 178.72 39.6092 178.443 39.24C178.24 38.9632 178.019 38.7232 177.742 38.5202C175.656 36.0469 178.074 34.5704 178.074 34.5704L187.395 33.1861L186.73 28.6825C169.454 27.5566 162.902 17.682 160.447 10.7791L157.716 11.1851L159.1 20.506H159.063C159.063 20.506 158.38 23.2561 155.372 21.9826C155.113 21.7795 154.818 21.6319 154.504 21.5211H154.486C154.061 21.3735 153.581 21.3181 153.12 21.3919C151.329 21.6503 150.13 23.4776 150.425 25.471C150.72 27.4644 152.4 28.8671 154.19 28.5902Z" fill="#285430"/>
</g>
<mask id="mask2_284_2712" style="mask-type:luminance" maskUnits="userSpaceOnUse" x="179" y="24" width="38" height="39">
<path d="M179.513 24.6403H217V62.4407H179.513V24.6403Z" fill="white"/>
</mask>
<g mask="url(#mask2_284_2712)">
<path d="M198.045 32.0048C198.045 32.0048 195.977 33.9797 198.58 35.9362C198.875 36.0838 199.17 36.2684 199.41 36.4899C199.761 36.8037 200.038 37.1728 200.204 37.6342C200.85 39.3138 199.853 41.2518 197.971 41.9717C196.088 42.6915 194.039 41.9163 193.393 40.2367C193.227 39.7937 193.172 39.3323 193.227 38.8709V38.8524C193.264 38.5386 193.338 38.2064 193.486 37.9111C194.076 34.6995 191.234 34.6257 191.234 34.6257L182.448 38.0034L185.826 46.8075C185.826 46.8075 187.782 48.8562 189.757 46.2537C189.905 45.9584 190.071 45.6816 190.293 45.4232H190.311C190.606 45.0909 190.994 44.8141 191.437 44.648C193.116 44.002 195.073 44.9987 195.793 46.8813C196.513 48.7455 195.737 50.7942 194.058 51.4402C193.615 51.6063 193.135 51.6617 192.692 51.6248H192.674C192.341 51.5879 192.028 51.4956 191.714 51.3664C188.521 50.7573 188.428 53.5997 188.428 53.5997L191.824 62.4038L216.206 53.0275L206.849 28.6271L198.045 32.0048Z" fill="#F19150"/>
</g>
<mask id="mask3_284_2712" style="mask-type:luminance" maskUnits="userSpaceOnUse" x="188" y="24" width="29" height="39">
<path d="M188.963 24.6403H217V62.4407H188.963V24.6403Z" fill="white"/>
</mask>
<g mask="url(#mask3_284_2712)">
<path d="M191.824 62.4038L190.514 59.0077C196.66 57.2727 209.395 50.9972 205.667 29.0886L206.848 28.6271L216.206 53.0275L191.824 62.4038Z" fill="#DE6E22"/>
</g>
<path d="M66.9636 90.6235L59.5807 106.497L66.373 109.671L64.5272 113.584L53.2314 108.269L62.46 88.4825L66.9636 90.6235Z" fill="black"/>
<path d="M73.0958 93.6636C73.7234 93.276 74.4248 93.1468 75.163 93.2944C75.9382 93.4421 76.5289 93.8482 76.9349 94.4757C77.3779 95.0663 77.5256 95.7677 77.3779 96.5429C77.2302 97.2812 76.8242 97.8718 76.1966 98.3148C75.5506 98.7209 74.8308 98.8316 74.0556 98.6839C73.3173 98.5363 72.7452 98.1487 72.3576 97.5027C71.9515 96.8751 71.8408 96.1738 71.9884 95.4355C72.1361 94.6603 72.5052 94.0697 73.0958 93.6636ZM71.2501 100.973L68.5923 114.336L73.0958 115.222L75.7537 101.859L71.2501 100.973Z" fill="black"/>
<path d="M78.1923 116.189L77.1587 102.604L81.8099 102.309L81.9576 103.712H82.0314C83.1573 102.438 84.4124 101.755 85.7967 101.644C86.4242 101.608 87.0887 101.644 87.79 101.792C88.4729 101.903 89.1189 102.124 89.7096 102.457C90.3371 102.752 90.8539 103.232 91.26 103.859C91.703 104.505 91.9429 105.299 91.9983 106.222L92.6627 115.155L88.0853 115.524L87.4947 107.846C87.4393 107.163 87.1625 106.573 86.6826 106.074C86.1843 105.539 85.5936 105.299 84.9107 105.336C84.1724 105.391 83.5264 105.705 82.9912 106.296C82.4374 106.886 82.1975 107.532 82.2529 108.215L82.8435 115.893L78.1923 116.189Z" fill="black"/>
<path d="M107.787 102.359L98.7801 106.419C99.1677 107.305 99.7399 107.859 100.478 108.044C101.216 108.191 101.918 108.117 102.619 107.822C103.302 107.49 103.819 107.139 104.17 106.789C104.502 106.456 104.797 105.866 105.056 105.017L108.821 105.164C108.47 107.933 106.791 110 103.8 111.366C101.973 112.215 100.072 112.307 98.1157 111.661C96.1961 110.978 94.8488 109.742 94.0551 107.97C93.2245 106.161 93.2061 104.278 93.9813 102.359C94.7196 100.439 96.0116 99.0734 97.8204 98.2244C99.7768 97.3384 101.623 97.1908 103.358 97.7814C105.129 98.3351 106.495 99.664 107.492 101.768C107.64 102.119 107.732 102.322 107.787 102.359ZM97.8204 104.131L102.545 101.99C102.139 101.307 101.678 100.882 101.143 100.735C100.589 100.587 99.9799 100.661 99.2969 100.956C98.5587 101.307 98.0603 101.75 97.8204 102.285C97.562 102.839 97.562 103.448 97.8204 104.131Z" fill="black"/>
<path d="M15.0611 57.2462V83.7507H0V17.6002H15.0611V43.957H36.3976V17.6002H51.4586V83.7507H36.3976V57.2462H15.0611Z" fill="black"/>
<path d="M102.714 65.1459H72.8873C72.8873 68.0622 73.8102 70.2032 75.6928 71.569C77.557 72.9533 79.5688 73.6362 81.7468 73.6362C84.0539 73.6362 85.8812 73.3409 87.2101 72.7503C88.539 72.1227 90.0525 70.8861 91.7875 69.0589L102.05 74.2269C97.7676 81.3698 90.6432 84.932 80.7132 84.932C74.5116 84.932 69.1959 82.8279 64.7662 78.5828C60.3364 74.3561 58.1216 69.2434 58.1216 63.2264C58.1216 57.2278 60.3364 52.1152 64.7662 47.87C69.1959 43.5879 74.5116 41.4469 80.7132 41.4469C87.247 41.4469 92.5627 43.348 96.6602 47.1317C100.739 50.8785 102.788 56.2496 102.788 63.2264C102.788 64.2231 102.751 64.8506 102.714 65.1459ZM73.2565 57.3201H88.9082C88.5575 55.1606 87.69 53.5179 86.3242 52.3736C84.9953 51.1923 83.2603 50.6017 81.1562 50.6017C78.7936 50.6017 76.8925 51.2292 75.4713 52.4474C74.0871 53.684 73.3488 55.3082 73.2565 57.3201Z" fill="black"/>
<path d="M109.405 83.7508V14.7947H123.58V83.7508H109.405Z" fill="black"/>
<path d="M175.513 47.7223C179.389 51.9121 181.346 57.0617 181.346 63.1526C181.346 69.2619 179.389 74.4299 175.513 78.6566C171.674 82.8464 166.802 84.932 160.895 84.932C155.432 84.932 150.928 83.234 147.385 79.8379V104.57H133.209V42.6282H147.237V47.2794H147.385C150.928 43.4034 155.432 41.4469 160.895 41.4469C166.802 41.4469 171.674 43.551 175.513 47.7223ZM163.479 70.0925C165.343 68.2836 166.285 65.958 166.285 63.1526C166.285 60.3101 165.399 57.9845 163.627 56.2127C161.855 54.4408 159.511 53.5548 156.613 53.5548C153.845 53.5548 151.556 54.4777 149.747 56.2865C147.975 58.0584 147.089 60.3471 147.089 63.1526C147.089 65.958 147.994 68.2836 149.821 70.0925C151.685 71.9197 153.955 72.8241 156.613 72.8241C159.363 72.8241 161.652 71.9197 163.479 70.0925Z" fill="black"/>
</svg>
