<svg width="35" height="33" viewBox="0 0 35 33" fill="none" xmlns="http://www.w3.org/2000/svg">
<path d="M41.8999 14.9121C41.9141 15.2065 41.8386 15.4982 41.6836 15.7487C41.5285 15.9993 41.3011 16.1969 41.0314 16.3156L3.90079 32.6982C3.64119 32.8129 3.35376 32.8492 3.07379 32.8028C2.79382 32.7563 2.53351 32.6291 2.32483 32.4368C2.11615 32.2444 1.96818 31.9953 1.89911 31.7201C1.83003 31.4448 1.84285 31.1554 1.936 30.8873L6.86561 16.6076L0.579256 2.86649C0.461835 2.60881 0.422053 2.3225 0.464774 2.04257C0.507495 1.76264 0.630868 1.50124 0.819804 1.29032C1.00874 1.0794 1.25505 0.928116 1.52861 0.854968C1.80216 0.781819 2.09111 0.789979 2.36011 0.878446L40.8998 13.5991C41.1791 13.6914 41.4238 13.866 41.6019 14.1C41.78 14.334 41.8853 14.6184 41.8999 14.9121Z" fill="#25472B"/>
</svg>
